CMD: /usr/local/bin/ffmpeg -y -i /Users/marcusduggs/Golf_Caddie/media/input/Marcus_NOZcMvN.mov -i /Users/marcusduggs/Golf_Caddie/media/overlays/map_-159.5286_21.9173.png -filter_complex [1:v]scale=144:-1[map];[0:v][map]overlay=main_w-overlay_w-10:main_h-overlay_h-10 -map 0:a? -c:v libx264 -preset veryfast -crf 23 -pix_fmt yuv420p -c:a aac -b:a 128k -movflags +faststart /Users/marcusduggs/Golf_Caddie/media/output/Marcus_processed.mp4

ffmpeg version 8.0.1 Copyright (c) 2000-2025 the FFmpeg developers
  built with Apple clang version 16.0.0 (clang-1600.0.26.6)
  configuration: --prefix=/usr/local/Cellar/ffmpeg/8.0.1 --enable-shared --enable-pthreads --enable-version3 --cc=clang --host-cflags= --host-ldflags= --enable-ffplay --enable-gnutls --enable-gpl --enable-libaom --enable-libaribb24 --enable-libbluray --enable-libdav1d --enable-libharfbuzz --enable-libjxl --enable-libmp3lame --enable-libopus --enable-librav1e --enable-librist --enable-librubberband --enable-libsnappy --enable-libsrt --enable-libssh --enable-libsvtav1 --enable-libtesseract --enable-libtheora --enable-libvidstab --enable-libvmaf --enable-libvorbis --enable-libvpx --enable-libwebp --enable-libx264 --enable-libx265 --enable-libxml2 --enable-libxvid --enable-lzma --enable-libfontconfig --enable-libfreetype --enable-frei0r --enable-libass --enable-libopencore-amrnb --enable-libopencore-amrwb --enable-libopenjpeg --enable-libspeex --enable-libsoxr --enable-libzmq --enable-libzimg --disable-libjack --disable-indev=jack --enable-videotoolbox --enable-audiotoolbox
  libavutil      60.  8.100 / 60.  8.100
  libavcodec     62. 11.100 / 62. 11.100
  libavformat    62.  3.100 / 62.  3.100
  libavdevice    62.  1.100 / 62.  1.100
  libavfilter    11.  4.100 / 11.  4.100
  libswscale      9.  1.100 /  9.  1.100
  libswresample   6.  1.100 /  6.  1.100
Input #0, mov,mp4,m4a,3gp,3g2,mj2, from '/Users/marcusduggs/Golf_Caddie/media/input/Marcus_NOZcMvN.mov':
  Metadata:
    major_brand     : qt  
    minor_version   : 0
    compatible_brands: qt  
    creation_time   : 2025-10-19T00:53:41.000000Z
    com.apple.quicktime.creationdate: 2025-01-12T10:59:07-1000
    com.apple.photos.originating.signature: AcI6Db3NLlA03A41YeOJuNW2tHmJ
    com.apple.quicktime.location.ISO6709: +21.9173-159.5286+000.000/
  Duration: 00:00:11.54, start: 0.000000, bitrate: 2447 kb/s
  Stream #0:0[0x1](und): Audio: aac (LC) (mp4a / 0x6134706D), 44100 Hz, stereo, fltp, 167 kb/s (default)
    Metadata:
      creation_time   : 2025-10-19T00:53:41.000000Z
      handler_name    : Core Media Audio
      vendor_id       : [0][0][0][0]
  Stream #0:1[0x2](und): Video: h264 (Main) (avc1 / 0x31637661), yuv420p(tv, bt709, progressive), 720x1280, 2271 kb/s, 30 fps, 30 tbr, 600 tbn (default)
    Metadata:
      creation_time   : 2025-10-19T00:53:41.000000Z
      handler_name    : Core Media Video
      vendor_id       : [0][0][0][0]
      encoder         : H.264
  Stream #0:2[0x3](und): Data: none (mebx / 0x7862656D), 0 kb/s (default)
    Metadata:
      creation_time   : 2025-10-19T00:53:41.000000Z
      handler_name    : Core Media Metadata
  Stream #0:3[0x4](und): Data: none (mebx / 0x7862656D), 0 kb/s (default)
    Metadata:
      creation_time   : 2025-10-19T00:53:41.000000Z
      handler_name    : Core Media Metadata
Input #1, image2, from '/Users/marcusduggs/Golf_Caddie/media/overlays/map_-159.5286_21.9173.png':
  Duration: 00:00:00.04, start: 0.000000, bitrate: 9474 kb/s
  Stream #1:0: Video: mjpeg (Baseline), yuvj420p(pc, bt470bg/unknown/unknown), 600x400 [SAR 1:1 DAR 3:2], 25 fps, 25 tbr, 25 tbn
Stream mapping:
  Stream #0:1 (h264) -> overlay
  Stream #1:0 (mjpeg) -> scale:default
  overlay:default -> Stream #0:0 (libx264)
  Stream #0:0 -> #0:1 (aac (native) -> aac (native))
Press [q] to stop, [?] for help
[swscaler @ 0x7fa5595fd000] deprecated pixel format used, make sure you did set range correctly
[libx264 @ 0x7fa55270bcc0] using cpu capabilities: MMX2 SSE2Fast SSSE3 SSE4.2 AVX FMA3 BMI2 AVX2
[libx264 @ 0x7fa55270bcc0] profile High, level 3.1, 4:2:0, 8-bit
[libx264 @ 0x7fa55270bcc0] 264 - core 165 r3222 b35605a - H.264/MPEG-4 AVC codec - Copyleft 2003-2025 - http://www.videolan.org/x264.html - options: cabac=1 ref=1 deblock=1:0:0 analyse=0x3:0x113 me=hex subme=2 psy=1 psy_rd=1.00:0.00 mixed_ref=0 me_range=16 chroma_me=1 trellis=0 8x8dct=1 cqm=0 deadzone=21,11 fast_pskip=1 chroma_qp_offset=0 threads=12 lookahead_threads=4 sliced_threads=0 nr=0 decimate=1 interlaced=0 bluray_compat=0 constrained_intra=0 bframes=3 b_pyramid=2 b_adapt=1 b_bias=0 direct=1 weightb=1 open_gop=0 weightp=1 keyint=250 keyint_min=25 scenecut=40 intra_refresh=0 rc_lookahead=10 rc=crf mbtree=1 crf=23.0 qcomp=0.60 qpmin=0 qpmax=69 qpstep=4 ip_ratio=1.40 aq=1:1.00
Output #0, mp4, to '/Users/marcusduggs/Golf_Caddie/media/output/Marcus_processed.mp4':
  Metadata:
    major_brand     : qt  
    minor_version   : 0
    compatible_brands: qt  
    com.apple.quicktime.location.ISO6709: +21.9173-159.5286+000.000/
    com.apple.quicktime.creationdate: 2025-01-12T10:59:07-1000
    com.apple.photos.originating.signature: AcI6Db3NLlA03A41YeOJuNW2tHmJ
    encoder         : Lavf62.3.100
  Stream #0:0: Video: h264 (avc1 / 0x31637661), yuv420p(tv, bt709, progressive), 720x1280, q=2-31, 30 fps, 15360 tbn
    Metadata:
      encoder         : Lavc62.11.100 libx264
    Side data:
      cpb: bitrate max/min/avg: 0/0/0 buffer size: 0 vbv_delay: N/A
  Stream #0:1(und): Audio: aac (LC) (mp4a / 0x6134706D), 44100 Hz, stereo, fltp, 128 kb/s (default)
    Metadata:
      encoder         : Lavc62.11.100 aac
      creation_time   : 2025-10-19T00:53:41.000000Z
      handler_name    : Core Media Audio
      vendor_id       : [0][0][0][0]
frame=   90 fps=0.0 q=29.0 size=     512KiB time=00:00:02.93 bitrate=1430.0kbits/s speed=5.85x elapsed=0:00:00.50    
frame=  212 fps=211 q=29.0 size=    1536KiB time=00:00:07.00 bitrate=1797.6kbits/s speed=6.96x elapsed=0:00:01.00    
frame=  299 fps=198 q=29.0 size=    2048KiB time=00:00:09.90 bitrate=1694.7kbits/s speed=6.56x elapsed=0:00:01.50    
[mp4 @ 0x7fa55270acc0] Starting second pass: moving the moov atom to the beginning of the file
[out#0/mp4 @ 0x7fa55270a280] video:2413KiB audio:180KiB subtitle:0KiB other streams:0KiB global headers:0KiB muxing overhead: 0.524655%
frame=  346 fps=211 q=-1.0 Lsize=    2607KiB time=00:00:11.46 bitrate=1862.2kbits/s speed=6.99x elapsed=0:00:01.64    
[libx264 @ 0x7fa55270bcc0] frame I:2     Avg QP:21.94  size:144986
[libx264 @ 0x7fa55270bcc0] frame P:88    Avg QP:24.46  size: 20928
[libx264 @ 0x7fa55270bcc0] frame B:256   Avg QP:28.39  size:  1321
[libx264 @ 0x7fa55270bcc0] consecutive B-frames:  0.6%  1.2%  3.5% 94.8%
[libx264 @ 0x7fa55270bcc0] mb I  I16..4:  6.8% 25.6% 67.6%
[libx264 @ 0x7fa55270bcc0] mb P  I16..4:  0.9%  1.6%  0.3%  P16..4: 44.0% 11.4%  8.2%  0.0%  0.0%    skip:33.6%
[libx264 @ 0x7fa55270bcc0] mb B  I16..4:  0.0%  0.0%  0.0%  B16..8:  4.7%  1.6%  0.3%  direct: 2.0%  skip:91.4%  L0:26.2% L1:45.1% BI:28.7%
[libx264 @ 0x7fa55270bcc0] 8x8 transform intra:42.9% inter:30.2%
[libx264 @ 0x7fa55270bcc0] coded y,uvDC,uvAC intra: 63.6% 45.1% 10.9% inter: 8.0% 2.6% 0.0%
[libx264 @ 0x7fa55270bcc0] i16 v,h,dc,p: 22% 40% 26% 12%
[libx264 @ 0x7fa55270bcc0] i8 v,h,dc,ddl,ddr,vr,hd,vl,hu: 17% 37% 21%  3%  4%  3%  6%  3%  5%
[libx264 @ 0x7fa55270bcc0] i4 v,h,dc,ddl,ddr,vr,hd,vl,hu: 13% 20% 14%  7% 11%  8% 10%  6% 10%
[libx264 @ 0x7fa55270bcc0] i8c dc,h,v,p: 48% 30% 16%  6%
[libx264 @ 0x7fa55270bcc0] Weighted P-Frames: Y:2.3% UV:0.0%
[libx264 @ 0x7fa55270bcc0] kb/s:1713.16
[aac @ 0x7fa55270d240] Qavg: 318.459
